<svg xmlns="http://www.w3.org/2000/svg" width="11" height="14" viewBox="0 0 11 14" fill="none"><path opacity="0.3" d="M5.15626 0C3.78923 0.00161272 2.47865 0.545377 1.51202 1.51201C0.545382 2.47865 0.00161821 3.78922 5.48573e-06 5.15625C-0.00163181 6.27339 0.363278 7.36021 1.03876 8.25C1.03876 8.25 1.17938 8.43516 1.20235 8.46187L5.15626 13.125L9.11204 8.45953C9.13266 8.43469 9.27376 8.25 9.27376 8.25L9.27422 8.24859C9.94937 7.35919 10.3141 6.27287 10.3125 5.15625C10.3109 3.78922 9.76713 2.47865 8.80049 1.51201C7.83386 0.545377 6.52328 0.00161272 5.15626 0ZM5.15626 7.03125C4.78542 7.03125 4.4229 6.92128 4.11456 6.71526C3.80622 6.50923 3.5659 6.21639 3.42398 5.87378C3.28207 5.53117 3.24494 5.15417 3.31728 4.79046C3.38963 4.42674 3.56821 4.09265 3.83043 3.83042C4.09265 3.5682 4.42675 3.38962 4.79046 3.31728C5.15418 3.24493 5.53118 3.28206 5.87379 3.42398C6.2164 3.56589 6.50923 3.80621 6.71526 4.11456C6.92129 4.4229 7.03126 4.78541 7.03126 5.15625C7.03064 5.65334 6.83289 6.12989 6.4814 6.48139C6.1299 6.83289 5.65335 7.03063 5.15626 7.03125Z" fill="black"></path></svg>